<?xml version="1.0" encoding="UTF-8"?>
<svg width="444.05" height="444.05" version="1.1" viewBox="0 0 444.04 444.04" xml:space="preserve" xmlns="http://www.w3.org/2000/svg" xmlns:cc="http://creativecommons.org/ns#" xmlns:dc="http://purl.org/dc/elements/1.1/" xmlns:rdf="http://www.w3.org/1999/02/22-rdf-syntax-ns#"><metadata>
  <rdf:RDF>
    <cc:Work rdf:about="">
      <dc:format>image/svg+xml</dc:format>
      <dc:type rdf:resource="http://purl.org/dc/dcmitype/StillImage"/>
      <dc:title/>
    </cc:Work>
  </rdf:RDF>
</metadata>




	<path d="m422.5 346.23v-68.306h-16.678v-24.856c0-21.863-16.199-39.935-37.254-42.882v-0.798c0-26.702-21.723-48.426-48.426-48.426h-1.609c-26.699 0-48.426 21.724-48.426 48.426v87.633h-23.641v-93.169c0-6.083-3.248-11.394-8.096-14.333 5.662-1.667 9.799-6.896 9.799-13.098 0-7.544-6.117-13.661-13.662-13.661h-10.981v-12.727h-17v12.727h-10.984c-7.545 0-13.66 6.116-13.66 13.661 0 6.202 4.137 11.431 9.799 13.098-4.848 2.94-8.098 8.25-8.098 14.333v93.169h-23v-85.596c0-4.458-3.613-8.071-8.07-8.071h-16.412v-87.591c0-16.03-13.041-29.071-29.07-29.071v-1.267c0-23.608-19.139-42.748-42.748-42.748s-42.747 19.141-42.747 42.749v260.8h-21.54v55.139h444.04v-55.139h-21.541zm-136.25-136.84c0-17.801 14.48-32.284 32.281-32.284h1.609c17.803 0 32.285 14.483 32.285 32.284v1.559c-19.059 4.545-33.232 21.673-33.232 42.124v24.855h-16.676v19.098h-16.27v-87.635h3e-3zm16.269 103.78v33.067h-16.27v-33.067zm-32.412 0v33.067h-23.641v-33.067zm-125.67-93.666v85.596c0 4.458 3.613 8.071 8.07 8.071h31.07v33.068h-47.482v-126.74zm-37.412-116.66c7.129 0 12.93 5.8 12.93 12.929v87.591h-12.93zm0 116.66h12.93v126.73h-12.93z"/>

































</svg>
